HIERARCHY
ROOT Hips
{
	OFFSET -0.001795 -0.223333 0.028219
	CHANNELS 6 Xposition Yposition Zposition Zrotation Yrotation Xrotation 
	JOINT LeftUpLeg
	{
		OFFSET 0.069520 -0.091406 -0.006815
		CHANNELS 3 Zrotation Yrotation Xrotation
		JOINT LeftLeg
		{
			OFFSET 0.034277 -0.375199 -0.004496
			CHANNELS 3 Zrotation Yrotation Xrotation
			JOINT LeftFoot
			{
				OFFSET -0.013596 -0.397961 -0.043693
				CHANNELS 3 Zrotation Yrotation Xrotation
				JOINT LeftToe
				{
					OFFSET 0.026358 -0.055791 0.119288
					CHANNELS 3 Zrotation Yrotation Xrotation
					End Site
					{
						OFFSET 0.000000 0.000000 0.000000
					}
				}
			}
		}
	}
	JOINT RightUpLeg
	{
		OFFSET -0.067670 -0.090522 -0.004320
		CHANNELS 3 Zrotation Yrotation Xrotation
		JOINT RightLeg
		{
			OFFSET -0.038290 -0.382569 -0.008850
			CHANNELS 3 Zrotation Yrotation Xrotation
			JOINT RightFoot
			{
				OFFSET 0.015774 -0.398415 -0.042312
				CHANNELS 3 Zrotation Yrotation Xrotation
				JOINT RightToe
				{
					OFFSET -0.025372 -0.048144 0.123348
					CHANNELS 3 Zrotation Yrotation Xrotation
					End Site
					{
						OFFSET 0.000000 0.000000 0.000000
					}
				}
			}
		}
	}
	JOINT Spine
	{
		OFFSET -0.002533 0.108963 -0.026696
		CHANNELS 3 Zrotation Yrotation Xrotation
		JOINT Spine1
		{
			OFFSET 0.005487 0.135180 0.001092
			CHANNELS 3 Zrotation Yrotation Xrotation
			JOINT Spine2
			{
				OFFSET 0.001457 0.052922 0.025425
				CHANNELS 3 Zrotation Yrotation Xrotation
				JOINT Neck
				{
					OFFSET -0.002778 0.213870 -0.042857
					CHANNELS 3 Zrotation Yrotation Xrotation
					JOINT Head
					{
						OFFSET 0.005152 0.064970 0.051349
						CHANNELS 3 Zrotation Yrotation Xrotation
						End Site
						{
							OFFSET 0.000000 0.000000 0.000000
						}
					}
				}
				JOINT LeftShoulder
				{
					OFFSET 0.078845 0.121749 -0.034090
					CHANNELS 3 Zrotation Yrotation Xrotation
					JOINT LeftArm
					{
						OFFSET 0.090977 0.030469 -0.008868
						CHANNELS 3 Zrotation Yrotation Xrotation
						JOINT LeftForeArm
						{
							OFFSET 0.259612 -0.012772 -0.027456
							CHANNELS 3 Zrotation Yrotation Xrotation
							JOINT LeftHand
							{
								OFFSET 0.249234 0.008986 -0.001171
								CHANNELS 3 Zrotation Yrotation Xrotation
								End Site
								{
									OFFSET 0.000000 0.000000 0.000000
								}
							}
						}
					}
				}
				JOINT RightShoulder
				{
					OFFSET -0.081759 0.118833 -0.038615
					CHANNELS 3 Zrotation Yrotation Xrotation
					JOINT RightArm
					{
						OFFSET -0.096012 0.032551 -0.009143
						CHANNELS 3 Zrotation Yrotation Xrotation
						JOINT RightForeArm
						{
							OFFSET -0.253742 -0.013329 -0.021401
							CHANNELS 3 Zrotation Yrotation Xrotation
							JOINT RightHand
							{
								OFFSET -0.255298 0.007772 -0.005559
								CHANNELS 3 Zrotation Yrotation Xrotation
								End Site
								{
									OFFSET 0.000000 0.000000 0.000000
								}
							}
						}
					}
				}
			}
		}
	}
}
MOTION
Frames: 15
Frame Time: 0.050000
0.036152 0.940483 -0.078735 -6.358598 -8.622988 11.491494 7.587113 -0.224440 -24.930326 -0.733011 -0.021921 17.036468 2.635314 7.284577 8.515039 0.000000 0.000000 0.000000 -0.759198 3.168928 -27.474280 1.217948 0.775913 18.333615 -4.374566 -14.115822 10.099504 0.000000 0.000000 0.000000 -3.194070 0.408638 27.550586 -1.073968 0.509332 -1.852018 3.234656 1.525225 5.585190 5.776711 -2.557261 -16.501460 0.000000 0.000000 0.000000 -13.040221 -11.699933 5.190754 -44.374166 -28.167117 4.824430 0.066355 -46.170631 2.572705 0.000000 0.000000 0.000000 6.496515 28.014755 11.094259 39.344578 62.266924 17.127611 -3.376526 50.355829 0.409961 0.000000 0.000000 0.000000 
0.039834 0.941642 -0.078597 -5.989998 -9.401580 11.986021 6.775557 -0.353009 -24.577420 -0.456259 -0.077230 15.581667 2.971751 7.857160 8.887107 0.000000 0.000000 0.000000 -1.045045 3.201394 -27.754870 0.964752 0.847746 18.024539 -4.288986 -14.077036 10.186890 0.000000 0.000000 0.000000 -2.987728 0.397478 27.066278 -0.922186 0.439655 -2.149085 3.209770 1.721474 5.489464 5.909840 -2.522632 -17.530671 0.000000 0.000000 0.000000 -13.136830 -11.633941 5.208192 -43.899826 -28.021440 4.694976 -0.612188 -45.337468 2.815845 0.000000 0.000000 0.000000 6.595636 27.978325 11.077516 40.401125 61.570039 17.412136 -2.214903 51.600121 0.944026 0.000000 0.000000 0.000000 
0.043882 0.942831 -0.078312 -5.421185 -10.271103 12.334077 5.834384 -0.501315 -24.257679 -0.378609 -0.076868 14.383026 3.319678 8.452766 9.412000 0.000000 0.000000 0.000000 -1.754825 3.196132 -28.274072 0.742011 0.938933 18.120323 -4.060192 -13.817913 10.450795 0.000000 0.000000 0.000000 -2.651808 0.358658 26.753752 -1.063713 0.494572 -2.599291 3.217309 1.671392 5.624813 5.929648 -2.436324 -18.767396 0.000000 0.000000 0.000000 -13.137115 -11.865600 5.436384 -43.110322 -28.277866 4.638701 -0.584389 -44.517711 2.794911 0.000000 0.000000 0.000000 6.330700 27.282801 10.649645 42.670296 60.428901 18.088540 -1.693229 52.302807 1.133128 0.000000 0.000000 0.000000 
0.047966 0.943896 -0.078064 -5.007356 -11.290049 12.794425 5.138134 -0.587960 -24.058272 -0.445534 -0.039015 13.238449 3.741304 9.140997 9.952759 0.000000 0.000000 0.000000 -2.293039 3.226203 -28.737727 0.553994 1.000009 17.876492 -3.705442 -13.321865 10.610244 0.000000 0.000000 0.000000 -2.494585 0.375687 26.304096 -1.028494 0.471154 -3.036610 3.271259 1.517888 5.812904 5.715455 -2.233312 -20.129550 0.000000 0.000000 0.000000 -13.220850 -12.121028 5.727455 -41.649235 -28.617306 4.478736 -0.741707 -43.749116 2.862464 0.000000 0.000000 0.000000 7.012647 27.128024 10.571712 42.513567 58.252604 16.936375 -1.079167 52.342769 1.314931 0.000000 0.000000 0.000000 
0.051857 0.944897 -0.077711 -4.823661 -12.496526 13.256413 4.614125 -0.626099 -23.866887 -0.384466 -0.030814 12.241771 4.261991 9.948352 10.474478 0.000000 0.000000 0.000000 -2.496652 3.331996 -29.175001 0.264977 1.060967 17.285117 -3.549447 -13.182287 10.573323 0.000000 0.000000 0.000000 -2.337272 0.401654 25.855020 -0.940557 0.423027 -3.479163 3.496261 1.326589 6.045370 5.493146 -2.056745 -21.511181 0.000000 0.000000 0.000000 -13.558983 -12.118257 5.962251 -40.944083 -29.387888 4.574095 -0.215104 -43.361682 2.729356 0.000000 0.000000 0.000000 7.362767 26.369950 10.126082 44.274172 55.771915 16.629126 -0.410736 51.642335 1.449208 0.000000 0.000000 0.000000 
0.055283 0.946182 -0.076981 -4.791590 -14.678882 13.916611 4.184303 -0.585831 -23.538255 -0.253342 -0.022409 11.004751 5.248021 11.408748 11.284864 0.000000 0.000000 0.000000 -2.467421 3.590888 -29.828818 -0.050260 1.155263 16.753866 -2.845808 -12.033092 10.266885 0.000000 0.000000 0.000000 -2.640606 0.583801 24.709572 -0.814215 0.361171 -3.425456 3.963845 1.245483 6.208257 4.871880 -1.738024 -22.875553 0.000000 0.000000 0.000000 -13.234183 -11.940057 6.119236 -41.081707 -29.380409 4.578725 -0.038599 -44.070964 2.874938 0.000000 0.000000 0.000000 8.814049 26.086729 9.908370 44.040665 52.165688 14.883241 1.721684 50.890475 2.152773 0.000000 0.000000 0.000000 
0.057954 0.947487 -0.075166 -4.982908 -16.686909 14.677880 3.759550 -0.557686 -23.442891 0.315506 -0.119160 10.173296 6.192682 12.752504 12.089724 0.000000 0.000000 0.000000 -2.137641 3.852383 -30.189673 -0.548041 1.230491 15.823362 -2.389793 -11.350532 10.047709 0.000000 0.000000 0.000000 -2.835127 0.690581 23.364415 -0.457897 0.212561 -3.067592 4.318270 0.706839 5.887686 4.327403 -1.524048 -24.026859 0.000000 0.000000 0.000000 -13.757008 -11.031939 6.066752 -40.777593 -28.813969 4.283489 -0.567632 -46.010393 3.494846 0.000000 0.000000 0.000000 9.897945 25.096274 9.185754 44.994152 47.367425 13.277339 5.532596 50.244605 3.479706 0.000000 0.000000 0.000000 
0.059681 0.948975 -0.071525 -5.229559 -19.038917 15.204377 3.435390 -0.505011 -22.582353 0.750598 -0.183840 8.816313 7.345242 14.330392 12.963057 0.000000 0.000000 0.000000 -2.093200 3.997848 -30.041886 -0.362182 1.173761 15.088487 -1.891021 -10.668338 10.041829 0.000000 0.000000 0.000000 -3.165225 0.852447 22.429791 0.050743 -0.012378 -3.380263 4.606129 -0.048932 6.224332 2.957521 -1.018714 -24.981670 0.000000 0.000000 0.000000 -14.016273 -10.236734 6.131975 -40.805747 -27.951807 3.906553 -1.655902 -48.144712 4.482954 0.000000 0.000000 0.000000 12.083130 23.575153 8.078853 45.111360 41.046941 10.872971 10.004984 49.867102 4.985976 0.000000 0.000000 0.000000 
0.059635 0.950608 -0.066103 -5.414000 -21.513055 15.357839 2.979614 -0.504511 -21.101708 1.332563 -0.277992 7.346198 8.598013 15.991610 13.945139 0.000000 0.000000 0.000000 -1.588512 4.135289 -29.495411 -0.358394 1.165851 14.500689 -1.761770 -10.409752 9.403355 0.000000 0.000000 0.000000 -3.352506 0.973509 21.679453 0.288559 -0.109460 -3.023720 4.902452 -1.387216 6.261245 2.426546 -1.063286 -24.900564 0.000000 0.000000 0.000000 -14.789869 -8.566239 5.921193 -40.800968 -27.360727 3.579437 -2.884690 -50.584975 5.782094 0.000000 0.000000 0.000000 12.698164 22.247695 6.771983 46.972813 34.675704 8.990391 11.726192 48.857181 4.980322 0.000000 0.000000 0.000000 
0.057334 0.951748 -0.058946 -5.855871 -25.068007 15.121811 2.386632 -0.512925 -18.545682 2.465493 -0.458900 5.557528 10.514651 18.482872 15.196898 0.000000 0.000000 0.000000 -1.579667 4.249335 -28.993083 0.309621 1.170057 14.948429 -1.286040 -9.778889 9.328742 0.000000 0.000000 0.000000 -3.638370 1.190600 21.356399 0.680942 -0.281049 -2.973830 4.794991 -2.344289 6.850888 1.763082 -1.052474 -25.147386 0.000000 0.000000 0.000000 -13.878695 -6.882568 5.387817 -42.150759 -26.429477 3.500876 -4.603706 -53.311135 7.577650 0.000000 0.000000 0.000000 14.431526 19.750397 4.709706 48.087304 27.743056 6.748102 13.800537 47.425572 5.008851 0.000000 0.000000 0.000000 
0.051996 0.952094 -0.051031 -6.347198 -28.146591 15.061745 2.210809 -0.486609 -16.095888 3.123999 -0.539053 3.816874 12.262485 20.726065 16.326273 0.000000 0.000000 0.000000 -1.069657 4.423595 -28.655711 0.476394 1.292413 15.591148 -0.524052 -8.636153 9.419917 0.000000 0.000000 0.000000 -3.863454 1.345653 20.917609 1.365715 -0.548553 -2.591526 4.821178 -3.962076 7.117779 1.822398 -1.457644 -24.522948 0.000000 0.000000 0.000000 -14.854755 -5.070990 5.205382 -41.663672 -25.460183 2.881541 -5.913623 -56.512156 9.513682 0.000000 0.000000 0.000000 14.483750 17.488140 2.801413 48.536666 21.242881 4.417908 15.535360 46.105049 4.860983 0.000000 0.000000 0.000000 
0.043466 0.951755 -0.043121 -6.779948 -31.979452 14.940158 1.754455 -0.480260 -13.733131 4.076884 -0.665989 2.779483 14.519190 23.474775 17.991858 0.000000 0.000000 0.000000 -0.485294 4.865704 -29.162140 0.574103 1.757801 18.227997 -0.441692 -8.538183 8.933812 0.000000 0.000000 0.000000 -3.914629 1.522292 20.837067 1.510057 -0.583022 -2.144948 4.510403 -4.883650 7.403571 1.458799 -1.597317 -24.287063 0.000000 0.000000 0.000000 -14.018206 -4.623892 5.281245 -42.295993 -24.911296 2.872733 -4.519826 -60.831312 10.285111 0.000000 0.000000 0.000000 15.668826 15.110892 0.712426 47.119206 15.110692 2.326216 17.014722 45.755559 4.866911 0.000000 0.000000 0.000000 
0.031373 0.950057 -0.035685 -7.757917 -35.073148 15.271229 2.317929 -0.347197 -11.310525 4.383359 -0.676576 1.458295 16.476321 25.951337 19.092355 0.000000 0.000000 0.000000 -0.603553 5.334234 -30.248642 1.526766 2.185673 21.335466 -0.979329 -10.134090 9.342101 0.000000 0.000000 0.000000 -3.291148 1.487822 20.811743 1.621385 -0.590564 -1.746704 4.351692 -6.646174 7.588302 0.758703 -1.603492 -24.148473 0.000000 0.000000 0.000000 -14.209862 -3.502011 5.322280 -42.256745 -25.067436 2.880840 -1.259227 -65.578937 10.165356 0.000000 0.000000 0.000000 15.400504 13.799762 -0.687933 46.054637 10.572587 0.827763 18.644940 44.246250 4.757099 0.000000 0.000000 0.000000 
0.015373 0.947998 -0.028061 -8.795337 -39.007975 15.714844 2.208217 -0.282878 -8.645640 5.632124 -0.817519 0.347044 19.070589 28.868630 21.315185 0.000000 0.000000 0.000000 -1.006570 6.256184 -32.587146 3.316208 2.652479 25.041199 -0.052984 -8.281985 8.831303 0.000000 0.000000 0.000000 -3.208497 1.655808 20.926353 1.903081 -0.625521 -1.063991 3.515557 -6.426075 7.420825 0.729069 -1.721483 -24.758985 0.000000 0.000000 0.000000 -13.995503 -4.241043 5.947238 -40.924348 -25.341646 2.742554 3.187321 -69.679626 8.355051 0.000000 0.000000 0.000000 17.133031 12.740081 -2.110956 44.120349 6.028742 -0.337727 20.875291 43.107097 5.347041 0.000000 0.000000 0.000000 
-0.005635 0.945497 -0.019255 -9.951789 -42.190971 15.651058 2.876836 -0.098346 -5.783912 5.814307 -0.858943 0.513307 21.240561 31.347244 23.055135 0.000000 0.000000 0.000000 -0.701474 6.719147 -33.073270 5.355357 2.613437 26.221306 -0.887597 -10.071524 8.634536 0.000000 0.000000 0.000000 -3.349845 1.924104 21.461640 1.854113 -0.518560 -0.346280 4.458928 -8.363268 7.203739 -0.513667 -1.447030 -24.682343 0.000000 0.000000 0.000000 -15.172548 -3.614235 6.531083 -38.958133 -25.513521 2.356715 11.254377 -73.968505 3.628164 0.000000 0.000000 0.000000 16.554867 12.703005 -2.854321 43.716660 3.569498 -1.008725 22.606334 41.678294 5.257285 0.000000 0.000000 0.000000 
